<svg width="100%" height="100%" id="svg" viewBox="0 0 1440 390" xmlns="http://www.w3.org/2000/svg" class="transition duration-300 ease-in-out delay-150"><defs><linearGradient id="gradient" x1="0%" y1="50%" x2="100%" y2="50%"><stop offset="5%" stop-color="#0693e3"></stop><stop offset="95%" stop-color="#f78da7"></stop></linearGradient></defs><path d="M 0,400 L 0,100 C 99.15897435897438,98.64358974358974 198.31794871794875,97.28717948717949 279,91 C 359.68205128205125,84.71282051282051 421.8871794871794,73.4948717948718 490,85 C 558.1128205128206,96.5051282051282 632.1333333333333,130.73333333333335 706,124 C 779.8666666666667,117.26666666666665 853.5794871794872,69.57179487179486 934,64 C 1014.4205128205128,58.428205128205136 1101.548717948718,94.97948717948718 1187,108 C 1272.451282051282,121.02051282051282 1356.225641025641,110.5102564102564 1440,100 L 1440,400 L 0,400 Z" stroke="none" stroke-width="0" fill="url(#gradient)" fill-opacity="0.53" class="transition-all duration-300 ease-in-out delay-150 path-0"></path><defs><linearGradient id="gradient" x1="0%" y1="50%" x2="100%" y2="50%"><stop offset="5%" stop-color="#0693e3"></stop><stop offset="95%" stop-color="#f78da7"></stop></linearGradient></defs><path d="M 0,400 L 0,233 C 72.99230769230769,230.91794871794872 145.98461538461538,228.8358974358974 218,218 C 290.0153846153846,207.1641025641026 361.05384615384617,187.57435897435897 442,190 C 522.9461538461538,192.42564102564103 613.8,216.86666666666665 691,234 C 768.2,251.13333333333335 831.7461538461539,260.9589743589744 921,247 C 1010.2538461538461,233.04102564102564 1125.2153846153847,195.2974358974359 1216,189 C 1306.7846153846153,182.7025641025641 1373.3923076923077,207.85128205128206 1440,233 L 1440,400 L 0,400 Z" stroke="none" stroke-width="0" fill="url(#gradient)" fill-opacity="1" class="transition-all duration-300 ease-in-out delay-150 path-1"></path></svg>